<?xml version="1.0" standalone="no"?>
<!DOCTYPE svg PUBLIC "-//W3C//DTD SVG 1.1//EN" "http://www.w3.org/Graphics/SVG/1.1/DTD/svg11.dtd" >
<svg xmlns="http://www.w3.org/2000/svg" xmlns:xlink="http://www.w3.org/1999/xlink" version="1.1">
<metadata></metadata>
<defs>
<font id="texta_altblack" horiz-adv-x="518" >
<font-face units-per-em="1000" ascent="800" descent="-200" />
<missing-glyph horiz-adv-x="198" />
<glyph horiz-adv-x="0" />
<glyph horiz-adv-x="333" />
<glyph horiz-adv-x="0" />
<glyph horiz-adv-x="0" />
<glyph unicode="&#xd;" horiz-adv-x="105" />
<glyph unicode=" "  horiz-adv-x="198" />
<glyph unicode="&#x09;" horiz-adv-x="198" />
<glyph unicode="&#xa0;" horiz-adv-x="198" />
<glyph unicode="!" horiz-adv-x="245" d="M169 214h-94l-35 386h164zM38 76q0 35 24.5 60t59.5 25t60 -25t25 -60t-25 -59.5t-60 -24.5t-59.5 24.5t-24.5 59.5z" />
<glyph unicode="&#x22;" horiz-adv-x="352" d="M124 475h-84l12 209h121zM285 475h-84l12 209h121z" />
<glyph unicode="#" horiz-adv-x="672" d="M522 440h121l-19 -82h-120l-30 -132h122l-19 -82h-121l-32 -144h-88l32 144h-133l-32 -144h-88l32 144h-118l18 82h118l30 132h-119l18 82h119l32 143h88l-32 -143h133l32 143h88zM253 226h133l30 132h-133z" />
<glyph unicode="$" horiz-adv-x="541" d="M108 178q66 -44 136 -56v118q-2 0 -6 2q-100 29 -149 71.5t-49 113.5q0 79 51.5 128.5t152.5 56.5v104h59v-104q62 -4 111 -19.5t66 -29.5l18 -14l-78 -118q-49 38 -117 48v-105q104 -29 156 -73t52 -115q0 -82 -53 -137t-155 -61v-95h-59v96q-40 3 -77 12t-61 20 t-42 21.5t-26 17.5l-9 7zM207 437q0 -28 37 -43v84q-37 -8 -37 -41zM341 170q0 30 -38 48v-95q38 10 38 47z" />
<glyph unicode="%" horiz-adv-x="681" d="M173 613q64 0 102.5 -43t38.5 -104t-38.5 -104t-102.5 -43t-102.5 43.5t-38.5 103.5q0 61 38.5 104t102.5 43zM634 600l-477 -600h-114l479 600h112zM173 537q-47 0 -47 -71q0 -70 47 -70t47 70q0 71 -47 71zM509 286q64 0 102.5 -43t38.5 -104t-38.5 -104t-102.5 -43 t-102.5 43.5t-38.5 103.5q0 61 38.5 104t102.5 43zM509 210q-47 0 -47 -71q0 -70 47 -70t47 70q0 71 -47 71z" />
<glyph unicode="&#x26;" horiz-adv-x="661" d="M622 302q-16 -101 -80 -182l124 -120h-196l-31 31q-73 -41 -152 -41q-127 0 -187.5 49t-60.5 134q0 97 112 157l-8 9q-53 56 -53 116q0 68 52.5 113t144.5 45q90 0 143.5 -43t53.5 -110q0 -61 -32.5 -99t-89.5 -66l81 -79q32 53 41 117zM232 445q0 -23 41 -64 q70 30 70 63q0 22 -14 36.5t-41 14.5q-28 0 -42 -14t-14 -36zM290 113q30 0 59 12l-108 112q-42 -29 -42 -62q0 -27 23.5 -44.5t67.5 -17.5z" />
<glyph unicode="'" horiz-adv-x="192" d="M125 475h-85l12 209h121z" />
<glyph unicode="(" horiz-adv-x="301" d="M177 287q0 -64 11 -121.5t27.5 -92.5t32.5 -61.5t27 -37.5l11 -11l-95 -100q-7 5 -18 16t-39 49.5t-50 83.5t-39.5 119.5t-17.5 155.5q0 82 17 155.5t41 120.5t48 82.5t41 50.5l17 16l95 -100l-11.5 -11.5t-26.5 -36.5t-33 -63t-26 -91.5t-12 -122.5z" />
<glyph unicode=")" horiz-adv-x="302" d="M124 287q0 65 -11 122t-27 92.5t-32.5 62t-27.5 37.5l-11 11l95 100q7 -5 18 -16t39 -49.5t50 -83.5t39.5 -119.5t17.5 -156.5q0 -81 -17 -155t-41 -121t-48 -82t-41 -51l-17 -15l-95 100l11.5 11.5t26.5 36.5t33 63t26 91.5t12 121.5z" />
<glyph unicode="*" horiz-adv-x="386" d="M146 530l-115 20l27 85l107 -53l-16 118h88l-18 -119l108 54l27 -85l-115 -20l83 -88l-73 -51l-56 105l-57 -105l-72 51z" />
<glyph unicode="+" horiz-adv-x="498" d="M307 352h159v-116h-159v-155h-116v155h-159v116h159v163h116v-163z" />
<glyph unicode="," horiz-adv-x="230" d="M29 -49q53 12 63 42q-26 6 -42.5 27.5t-16.5 49.5q0 34 23 57.5t57 23.5t57.5 -23.5t23.5 -57.5v-5q0 -67 -37 -120.5t-107 -67.5z" />
<glyph unicode="-" horiz-adv-x="372" d="M46 287h280v-116h-280v116z" />
<glyph unicode="." horiz-adv-x="227" d="M113 -10q-34 0 -57 23t-23 57t23 57.5t57 23.5t57.5 -23.5t23.5 -57.5t-23.5 -57t-57.5 -23z" />
<glyph unicode="/" horiz-adv-x="628" d="M20 -112l447 895h141l-447 -895h-141z" />
<glyph unicode="0" horiz-adv-x="630" d="M315 -13q-134 0 -206.5 90.5t-72.5 222.5t72.5 222.5t206.5 90.5q91 0 155.5 -44.5t94 -114t29.5 -154.5t-29.5 -154.5t-94 -114t-155.5 -44.5zM315 127q63 0 96 46.5t33 126.5t-33 126.5t-96 46.5t-96 -46.5t-33 -126.5t33 -126.5t96 -46.5z" />
<glyph unicode="1" horiz-adv-x="342" d="M15 600h267v-600h-145v475h-122v125z" />
<glyph unicode="2" horiz-adv-x="530" d="M42 105l223 211q24 22 33 40t9 44q0 30 -22 50.5t-60 20.5q-34 0 -61.5 -13t-61.5 -41l-76 116q3 3 9.5 8.5t27.5 19.5t45 24.5t61 19t76 8.5q110 0 174 -56t64 -137q0 -101 -70 -166l-139 -129h213v-125h-445v105z" />
<glyph unicode="3" horiz-adv-x="522" d="M153 260v87l119 128h-225v125h416v-103l-124 -134q146 -31 146 -177q0 -85 -63 -140.5t-187 -55.5q-64 0 -117 20.5t-74 41.5l-21 20l74 106q7 -6 18.5 -15.5t47 -25t69.5 -15.5q96 0 96 69t-98 69h-77z" />
<glyph unicode="4" horiz-adv-x="583" d="M20 231l307 369h139v-352h87v-124h-87v-124h-145v124h-301v107zM193 248h128v159l-105 -130l-23 -24v-5z" />
<glyph unicode="5" d="M203 475l-2 -92q28 2 44 2q244 0 244 -190q0 -91 -62.5 -148t-187.5 -57q-39 0 -75.5 8.5t-60.5 20.5t-42 24t-26 21l-8 8l73 105q7 -6 18.5 -15t47.5 -24.5t70 -15.5q48 0 72 18.5t24 50.5q0 76 -131 76q-33 0 -64.5 -4.5t-46.5 -8.5l-16 -4l-12 7l9 343h378v-125h-246z " />
<glyph unicode="6" horiz-adv-x="567" d="M206 346q44 38 110 38q100 0 159.5 -48.5t59.5 -138.5q0 -94 -68.5 -151.5t-170.5 -57.5q-113 0 -186 71t-73 218q0 149 69 238.5t193 89.5q39 0 75 -7t58.5 -17.5t39 -21t24.5 -17.5l7 -7l-78 -117q-34 29 -59 39.5t-66 10.5q-94 0 -94 -101v-21zM292 272q-37 0 -61 -21 t-25 -52v-3q0 -35 23 -56.5t63 -21.5t63 21.5t23 55.5q0 33 -23.5 55t-62.5 22z" />
<glyph unicode="7" horiz-adv-x="488" d="M26 600h448v-104l-252 -496h-165l248 475h-279v125z" />
<glyph unicode="8" horiz-adv-x="556" d="M278 -13q-112 0 -176.5 54t-64.5 137q0 90 72 136q-55 48 -55 123q0 76 57 126t167 50q109 0 166.5 -50t57.5 -126t-56 -123q73 -46 73 -136q0 -83 -64.5 -137t-176.5 -54zM278 359q32 0 54 19t22 45q0 27 -22 46.5t-54 19.5q-31 0 -53 -19.5t-22 -46.5q0 -26 22 -45 t53 -19zM364 185q0 32 -24 53.5t-62 21.5q-37 0 -61 -22t-24 -53t24 -53t61 -22q38 0 62 22t24 53z" />
<glyph unicode="9" horiz-adv-x="567" d="M268 125q94 0 94 101v20q-43 -37 -110 -37q-100 0 -159.5 48.5t-59.5 138.5q0 94 68.5 151.5t170.5 57.5q113 0 186 -71t73 -218q0 -149 -69 -238.5t-193 -89.5q-39 0 -75 7t-58.5 17.5t-39 21t-24.5 17.5l-7 7l78 117q34 -29 59 -39.5t66 -10.5zM276 321q36 0 60 21 t26 52v3q0 35 -23 56.5t-63 21.5t-63 -21.5t-23 -55.5q0 -33 23.5 -55t62.5 -22z" />
<glyph unicode=":" horiz-adv-x="247" d="M43 346q0 34 23 57.5t57 23.5t57.5 -23.5t23.5 -57.5t-23.5 -57t-57.5 -23t-57 23t-23 57zM43 70q0 34 23 57.5t57 23.5t57.5 -23.5t23.5 -57.5t-23.5 -57t-57.5 -23t-57 23t-23 57z" />
<glyph unicode=";" horiz-adv-x="248" d="M123 266q-34 0 -57 23t-23 57t23 57.5t57 23.5t57.5 -23.5t23.5 -57.5t-23.5 -57t-57.5 -23zM39 -49q53 12 63 42q-26 6 -42.5 27.5t-16.5 49.5q0 34 23 57.5t57 23.5t57.5 -23.5t23.5 -57.5v-5q0 -67 -37 -120.5t-107 -67.5z" />
<glyph unicode="&#x3c;" horiz-adv-x="366" d="M34 358l272 152v-157l-162 -54l162 -56v-156l-272 155v116z" />
<glyph unicode="=" horiz-adv-x="446" d="M51 446h344v-116h-344v116zM51 256h344v-116h-344v116z" />
<glyph unicode="&#x3e;" horiz-adv-x="366" d="M332 242l-272 -155v156l162 56l-162 54v157l272 -152v-116z" />
<glyph unicode="?" horiz-adv-x="455" d="M26 553q6 7 19 17t59 27t101 17q96 0 156.5 -46t60.5 -124q0 -39 -14 -69.5t-35 -49t-42 -33.5t-37.5 -31.5t-19.5 -34.5l-3 -19h-117v30q0 34 15.5 59.5t34.5 39t34.5 34.5t15.5 46q0 26 -18 40.5t-50 14.5q-20 0 -41 -8.5t-32 -16.5l-11 -8zM132 73q0 34 23.5 57 t57.5 23t57 -23t23 -57t-23 -57.5t-57 -23.5t-57.5 23.5t-23.5 57.5z" />
<glyph unicode="@" horiz-adv-x="991" d="M728 51q-38 0 -67.5 10t-44.5 24.5t-25 29t-13 24.5l-3 10h-5q-46 -92 -146 -92q-79 0 -128 50t-49 135q0 115 63 185t155 70q89 0 120 -74l11 64h123l-25 -221q-3 -24 -3 -47q0 -38 24 -61t62 -23q52 0 82 48t30 132q0 67 -25.5 132.5t-72 119.5t-121.5 87.5t-165 33.5 q-179 0 -297 -121t-118 -289q0 -171 120.5 -292t290.5 -121q56 0 108.5 14t77.5 29l25 14l24 -51q-9 -7 -27.5 -17.5t-79.5 -27.5t-128 -17q-135 0 -244 65.5t-167.5 172t-58.5 229.5q0 127 58.5 233.5t168 171t247.5 64.5q192 0 321.5 -125t129.5 -303q0 -115 -60 -190.5 t-168 -75.5zM471 196q38 0 61.5 28t23.5 69q0 67 -66 67q-37 0 -61 -26.5t-24 -68.5q0 -31 18 -50t48 -19z" />
<glyph unicode="A" horiz-adv-x="598" d="M607 0h-156l-37 108h-230l-37 -108h-156l229 600h158zM223 222h152l-76 222z" />
<glyph unicode="B" horiz-adv-x="600" d="M567 179q0 -84 -58 -131.5t-164 -47.5h-283v600h279q104 0 157 -43t53 -121q0 -37 -19 -69t-52 -52v-8q41 -13 64 -47.5t23 -80.5zM397 415q0 25 -16.5 42.5t-42.5 17.5h-131v-118h128q27 0 44.5 17t17.5 41zM207 249v-124h139q28 0 46.5 18t18.5 43q0 23 -16.5 42 t-42.5 21h-145z" />
<glyph unicode="C" horiz-adv-x="552" d="M543 60l-8 -8t-23.5 -18t-40.5 -22.5t-58 -17.5t-75 -8q-141 0 -225 90t-84 224q0 133 84 223t225 90q63 0 114 -18.5t71 -36.5l20 -18l-83 -111q-4 5 -13 12.5t-40 20t-67 12.5q-71 0 -116 -48t-45 -126t45 -126t116 -48q36 0 66 11t42 23l12 11z" />
<glyph unicode="D" horiz-adv-x="637" d="M608 300q0 -131 -86 -215.5t-229 -84.5h-231v600h231q143 0 229 -84.5t86 -215.5zM207 475v-350h75q75 0 125.5 47.5t50.5 127.5q0 84 -50 129.5t-126 45.5h-75z" />
<glyph unicode="E" horiz-adv-x="533" d="M451 247h-244v-122h291v-125h-436v600h436v-125h-291v-114h244v-114z" />
<glyph unicode="F" horiz-adv-x="537" d="M451 246h-244v-246h-145v600h440v-125h-295v-115h244v-114z" />
<glyph unicode="G" horiz-adv-x="641" d="M322 357h299v-87q0 -129 -77.5 -206t-208.5 -77q-140 0 -223 90t-83 223t84 223t224 90q43 0 81 -7.5t62 -18.5t41.5 -22.5t24.5 -18.5l8 -8l-87 -112q-5 5 -15 13t-44.5 21.5t-72.5 13.5q-68 0 -112 -48.5t-44 -125.5t44 -125.5t112 -48.5q59 0 90.5 30.5t33.5 79.5v7 h-137v114z" />
<glyph unicode="H" horiz-adv-x="660" d="M598 -1h-145v244h-246v-244h-145v601h145v-243h246v243h145v-601z" />
<glyph unicode="I" horiz-adv-x="269" d="M207 0h-145v600h145v-600z" />
<glyph unicode="J" horiz-adv-x="466" d="M79 161q35 -32 91 -32q51 0 73 26.5t22 84.5v360h145v-390q-1 -95 -59.5 -159.5t-176.5 -64.5q-51 0 -92 14.5t-57 29.5l-16 14z" />
<glyph unicode="K" horiz-adv-x="616" d="M207 349l227 251h177v-13l-221 -244l221 -329v-14h-164l-156 234l-84 -94v-140h-145v600h145v-251z" />
<glyph unicode="L" horiz-adv-x="502" d="M62 0v600h145v-475h268v-125h-413z" />
<glyph unicode="M" horiz-adv-x="730" d="M525 331l-129 -172h-61l-130 173v-332h-144l1 600h117l186 -257l186 257h117l1 -600h-144v331z" />
<glyph unicode="N" horiz-adv-x="668" d="M606 0h-112l-288 350v-350h-144v600h112l288 -344v344h144v-600z" />
<glyph unicode="O" horiz-adv-x="672" d="M335 -14q-134 0 -220.5 91.5t-86.5 222.5t86.5 222t220.5 91q135 0 222 -91t87 -222t-87 -222.5t-222 -91.5zM335 127q68 0 113.5 48t45.5 125t-45.5 125t-113.5 48q-67 0 -112 -48t-45 -125t45 -125t112 -48z" />
<glyph unicode="P" horiz-adv-x="578" d="M327 600q102 0 166.5 -57t64.5 -145q0 -92 -63.5 -146.5t-167.5 -54.5h-120v-197h-145v600h265zM408 398q0 38 -25 57.5t-66 19.5h-110v-155h111q40 0 65 20.5t25 57.5z" />
<glyph unicode="Q" horiz-adv-x="672" d="M335 -14q-134 0 -220.5 91.5t-86.5 222.5t86.5 222t220.5 91q135 0 222 -91t87 -222q0 -88 -41 -161t-113 -114l64 -124h-159l-39 86q-4 0 -11 -0.5t-10 -0.5zM335 127q68 0 113.5 48t45.5 125t-45.5 125t-113.5 48q-67 0 -112 -48t-45 -125t45 -125t112 -48z" />
<glyph unicode="R" horiz-adv-x="600" d="M327 600q102 0 166.5 -57t64.5 -145q0 -61 -29.5 -107.5t-82.5 -70.5v-11l135 -199v-10h-165l-125 197h-84v-197h-145v600h265zM408 398q0 38 -25 57.5t-66 19.5h-110v-155h111q40 0 65 20.5t25 57.5z" />
<glyph unicode="S" horiz-adv-x="533" d="M103 178q10 -6 26.5 -16t60.5 -26t80 -16q66 0 66 50q0 24 -20.5 39t-82.5 33q-100 29 -149 71.5t-49 113.5q0 85 58.5 135.5t173.5 50.5q72 0 128.5 -16t76.5 -32l21 -16l-78 -118q-7 6 -20 14t-51.5 22t-76.5 14q-65 0 -65 -44q0 -22 20 -34t75 -28q105 -29 157 -73 t52 -116q0 -87 -59 -143t-172 -56q-74 0 -136.5 20t-88.5 40l-26 20z" />
<glyph unicode="T" horiz-adv-x="529" d="M23 600h483v-125h-169v-475h-145v475h-169v125z" />
<glyph unicode="U" horiz-adv-x="640" d="M320 -14q-120 0 -193 77.5t-73 195.5v341h145v-341q0 -59 31 -95.5t90 -36.5q60 0 90.5 36.5t30.5 95.5v341h145v-341q0 -119 -72 -196t-194 -77z" />
<glyph unicode="V" horiz-adv-x="598" d="M-9 600h156l152 -445l152 445h156l-229 -600h-158z" />
<glyph unicode="W" horiz-adv-x="799" d="M397 337l-100 -337h-112l-175 600h159l76 -318l98 318h108l100 -320l78 320h160l-175 -600h-112z" />
<glyph unicode="X" horiz-adv-x="590" d="M405 307l176 -307h-176l-85 177l-25 53l-24 -53l-85 -177h-175l173 307l-171 293h176l82 -167l24 -56l25 56l82 167h175z" />
<glyph unicode="Y" horiz-adv-x="548" d="M401 600h156l-210 -367v-233h-145v231l-211 369h156l101 -182l26 -61l26 61z" />
<glyph unicode="Z" horiz-adv-x="554" d="M30 109l296 366h-286v125h478v-114l-291 -361h292v-125h-489v109z" />
<glyph unicode="[" horiz-adv-x="335" d="M51 700h266v-116h-130v-598h130v-116h-266v830z" />
<glyph unicode="\" horiz-adv-x="407" d="M24 798h141l218 -926h-143z" />
<glyph unicode="]" horiz-adv-x="335" d="M18 -14h130v598h-130v116h266v-830h-266v116z" />
<glyph unicode="^" horiz-adv-x="385" d="M190 587l-51 -90h-104l119 196h73l123 -196h-109z" />
<glyph unicode="_" horiz-adv-x="513" d="M35 -40h442v-116h-442v116z" />
<glyph unicode="`" horiz-adv-x="279" d="M26 633l159 24l33 -160h-96z" />
<glyph unicode="a" d="M353 366l23 54h94v-420h-94l-23 54h-6q-1 -3 -4 -7t-13.5 -15t-23.5 -19.5t-35.5 -15.5t-49.5 -7q-85 0 -140 59.5t-55 159.5q0 97 55 159t139 62q43 0 74.5 -16t41.5 -32l11 -16h6zM334 211q0 47 -22 74t-60 27q-37 0 -59 -28t-22 -73t22.5 -74t58.5 -29q38 0 60 28 t22 75z" />
<glyph unicode="b" d="M48 605h144v-225h6q3 6 9 14t33 22t63 14q82 0 135.5 -62t53.5 -159q0 -100 -54.5 -159.5t-139.5 -59.5q-27 0 -50 7t-36.5 16.5t-23 19t-13.5 16.5l-4 7h-6l-22 -56h-95v605zM185 211q0 -47 22 -75t59 -28q36 0 58.5 29t22.5 74t-22 73t-59 28t-59 -27t-22 -74z" />
<glyph unicode="c" horiz-adv-x="406" d="M253 -10q-102 0 -165 62.5t-63 157.5t62.5 157.5t165.5 62.5q39 0 72 -9.5t47 -18.5l14 -10l-36 -103q-38 23 -84 23q-43 0 -69.5 -28t-26.5 -74t26.5 -74t69.5 -28q20 0 41 6t32 12l11 5l36 -101q-5 -4 -15 -11t-44.5 -18t-73.5 -11z" />
<glyph unicode="d" horiz-adv-x="519" d="M326 382v223h144v-605h-94l-23 54h-6q-1 -3 -4 -7t-13.5 -15t-23.5 -19.5t-35.5 -15.5t-49.5 -7q-85 0 -140 59.5t-55 159.5q0 98 54 159.5t136 61.5q22 0 41 -5t30 -12t19 -14t11 -12l3 -5h6zM334 211q0 47 -22 74t-60 27q-37 0 -59 -28t-22 -73t22.5 -74t58.5 -29 q38 0 60 28t22 75z" />
<glyph unicode="e" horiz-adv-x="461" d="M418 39q-6 -6 -18 -14.5t-54 -23t-90 -14.5q-106 0 -168.5 63.5t-62.5 159.5q0 95 60 157.5t154 62.5q93 0 146.5 -56t53.5 -153l-1 -40h-274q11 -81 102 -81q27 0 53 8t38 16l12 8zM235 326q-56 0 -69 -67h135q-2 31 -19 49t-47 18z" />
<glyph unicode="f" horiz-adv-x="350" d="M236 309v-309h-144v309h-69v111h69v12q0 85 43.5 132t125.5 47q28 0 54.5 -5t38.5 -10l13 -5l-45 -104q-12 6 -36 6q-23 0 -36.5 -14.5t-13.5 -37.5v-21h104v-111h-104z" />
<glyph unicode="g" d="M470 28q0 -93 -57 -150t-166 -57q-111 0 -169 64l67 86q37 -41 99 -41q82 0 82 94v16h-6q-3 -6 -9 -14t-32.5 -22t-62.5 -14q-82 0 -136 61.5t-54 159.5q0 100 55 159.5t140 59.5q28 0 51.5 -7t37.5 -17.5t23.5 -21t13.5 -17.5l4 -7h5l23 60h91v-392zM334 209 q0 47 -22 75t-60 28q-36 0 -58.5 -29t-22.5 -74t22 -73t59 -28q38 0 60 27t22 74z" />
<glyph unicode="h" horiz-adv-x="517" d="M49 605h146v-223h4q34 49 110 49q75 0 120 -49.5t45 -133.5v-247h-144v235q0 28 -20 48t-48 20q-27 0 -46.5 -18t-20.5 -45v-241h-146v605z" />
<glyph unicode="i" horiz-adv-x="242" d="M122 474q-35 0 -58 22t-23 56t23 56.5t58 22.5t59 -22.5t24 -56.5t-24 -56t-59 -22zM49 420h144v-420h-144v420z" />
<glyph unicode="j" horiz-adv-x="243" d="M121 474q-35 0 -58 22t-23 56t23 56.5t58 22.5t59 -22.5t24 -56.5t-24 -56t-59 -22zM-6 -37h25q30 0 30 31v426h145v-434q0 -64 -37 -103t-100 -39h-63v119z" />
<glyph unicode="k" horiz-adv-x="481" d="M471 420l-137 -183l145 -237h-173l-86 142l-27 -35v-107h-144v605h144v-340l108 155h170z" />
<glyph unicode="l" horiz-adv-x="242" d="M49 605h144v-605h-144v605z" />
<glyph unicode="m" horiz-adv-x="796" d="M193 0h-144v420h87l23 -57h7q44 67 132 67q99 0 146 -70h5q45 71 130 71q80 0 126.5 -49.5t46.5 -134.5v-247h-144v236q0 29 -17.5 48.5t-48.5 19.5q-30 0 -48.5 -17t-20.5 -44v-243h-144v236q0 29 -18 48.5t-49 19.5q-32 0 -50.5 -18.5t-18.5 -49.5v-236z" />
<glyph unicode="n" horiz-adv-x="517" d="M49 420h87l23 -57h7q26 37 55.5 52.5t76.5 15.5q80 0 127.5 -49.5t47.5 -134.5v-247h-144v236q0 29 -18.5 48.5t-49.5 19.5q-29 0 -47.5 -18t-20.5 -45v-241h-144v420z" />
<glyph unicode="o" horiz-adv-x="496" d="M471 208q0 -97 -64.5 -157.5t-158.5 -60.5t-158.5 60.5t-64.5 157.5q0 99 64.5 160.5t158.5 61.5t158.5 -62t64.5 -160zM248 103q37 0 59.5 29t22.5 78q0 48 -22.5 77.5t-59.5 29.5q-38 0 -60.5 -29.5t-22.5 -77.5q0 -49 22.5 -78t60.5 -29z" />
<glyph unicode="p" horiz-adv-x="519" d="M193 38v-194h-144v576h91l22 -57h6q1 3 4 7.5t14 16t24.5 20.5t37.5 16t51 7q85 0 139.5 -59.5t54.5 -159.5q0 -97 -53.5 -159t-135.5 -62q-36 0 -62.5 12t-34.5 24l-8 12h-6zM186 209q0 -47 22 -74t59 -27t59 28t22 73t-22.5 74t-58.5 29q-37 0 -59 -28t-22 -75z" />
<glyph unicode="q" d="M470 -156h-144v196h-6q-3 -6 -9 -14t-32.5 -22t-62.5 -14q-82 0 -136 61.5t-54 159.5q0 100 55 159.5t140 59.5q28 0 51.5 -7t37.5 -17.5t23.5 -21t13.5 -17.5l4 -7h5l23 60h91v-576zM334 209q0 47 -22 75t-60 28q-36 0 -58.5 -29t-22.5 -74t22 -73t59 -28q38 0 60 27 t22 74z" />
<glyph unicode="r" horiz-adv-x="316" d="M303 298h-22q-40 0 -64 -25t-24 -70v-203h-144v420h87l23 -57h6q35 57 116 57h22v-122z" />
<glyph unicode="s" horiz-adv-x="431" d="M68 132q67 -41 133 -41q49 0 49 25q0 15 -22.5 24t-54.5 17t-64 21t-54.5 43.5t-22.5 76.5q0 58 45.5 95t128.5 37q56 0 104 -9.5t68 -18.5l19 -10l-41 -103q-59 38 -132 38q-44 0 -44 -24q0 -14 23 -22.5t56 -16t66 -20.5t56 -43.5t23 -76.5q0 -61 -47.5 -97.5 t-144.5 -36.5q-58 0 -104.5 11t-63.5 22l-18 11z" />
<glyph unicode="t" horiz-adv-x="352" d="M83 420v128h144v-128h94v-111h-94v-159q0 -37 38 -37q9 0 18.5 3t14.5 6l4 3l39 -98q-48 -37 -116 -37q-73 0 -107.5 41.5t-34.5 111.5v166h-69v111h69z" />
<glyph unicode="u" horiz-adv-x="516" d="M323 420h144v-420h-98l-24 56h-6q-45 -66 -121 -66q-80 0 -127 49t-47 134v247h144v-237q0 -32 17 -52t48 -20q32 0 51 20.5t19 48.5v240z" />
<glyph unicode="v" horiz-adv-x="463" d="M283 0h-103l-186 420h157l69 -213q8 -19 8 -37h7q0 13 8 37l69 213h157z" />
<glyph unicode="w" horiz-adv-x="674" d="M526 0h-122l-55 187q-9 29 -9 56h-6q0 -24 -10 -56l-55 -187h-121l-150 420h152l53 -213q7 -28 7 -37h5q0 10 8 42l52 208h124l52 -208q8 -35 8 -42h5q0 14 7 37l53 213h152z" />
<glyph unicode="x" horiz-adv-x="468" d="M141 212l-127 208h161l60 -120h3l60 120h161l-138 -208l140 -212h-161l-62 126h-3l-63 -126h-160z" />
<glyph unicode="y" horiz-adv-x="515" d="M466 420v-392q0 -93 -57 -150.5t-165 -57.5q-111 0 -170 65l67 86q37 -41 99 -41q88 0 88 94v12q-37 -46 -111 -46q-80 0 -127 49t-47 134v247h144v-237q0 -32 17 -52t48 -20q33 0 53.5 18t22.5 49v242h138z" />
<glyph unicode="z" horiz-adv-x="432" d="M32 0v81l182 224h-180v115h365v-73l-178 -232h178v-115h-367z" />
<glyph unicode="{" horiz-adv-x="319" d="M39 339q28 0 40 15.5t12 51.5v145q0 157 183 164l20 -119q-34 -6 -46 -15t-12 -37v-160q0 -36 -16.5 -60.5t-46.5 -33.5v-9q29 -8 46 -33t17 -60v-159q0 -28 12 -37t46 -15l-20 -119q-183 7 -183 164v144q0 36 -12 51.5t-40 15.5h-23v106h23z" />
<glyph unicode="|" horiz-adv-x="233" d="M182 -128h-131v815h131v-815z" />
<glyph unicode="}" horiz-adv-x="319" d="M303 339v-106h-23q-28 0 -40 -15.5t-12 -51.5v-144q0 -157 -183 -164l-20 119q34 6 46 15t12 37v159q0 35 17 60t46 33v9q-30 9 -46.5 33.5t-16.5 60.5v160q0 28 -12 37t-46 15l20 119q183 -7 183 -164v-145q0 -36 12 -51.5t40 -15.5h23z" />
<glyph unicode="~" horiz-adv-x="470" d="M306 339q19 0 37 6t27 12l8 6l46 -89q-4 -5 -13 -12t-38.5 -19t-63.5 -12q-27 0 -72.5 16t-74.5 16q-20 0 -38 -6t-26 -12l-9 -6l-44 88q5 5 13.5 12.5t38.5 19.5t62 12q27 0 72.5 -16t74.5 -16z" />
<glyph unicode="&#xa1;" horiz-adv-x="235" d="M33 348q0 35 25 59.5t60 24.5t59.5 -24.5t24.5 -59.5t-24.5 -60t-59.5 -25t-60 25t-25 60zM200 -176h-164l35 386h94z" />
<glyph unicode="&#xa2;" horiz-adv-x="428" d="M202 84q-78 17 -124 75.5t-46 138.5q0 95 62.5 157t164.5 63l11 82h51l-12 -86q24 -4 45 -12t30 -14l9 -5l-36 -106q-27 16 -63 21l-26 -202h5q20 0 41 6t32 12l11 5l36 -104q-5 -4 -15 -10t-44.5 -16.5t-73.5 -10.5h-8l-10 -78h-51zM177 298q0 -60 41 -87l25 185 q-31 -9 -48.5 -35t-17.5 -63z" />
<glyph unicode="&#xa3;" horiz-adv-x="521" d="M478 0h-433v125q5 2 17.5 10t28.5 28.5t16 42.5q0 7 -4 37h-58v96h39q-9 49 -9 78q0 82 62.5 136t169.5 54q52 0 97.5 -16t65.5 -32l20 -16l-86 -120q-4 5 -12 12t-31.5 19t-47.5 12q-37 0 -56.5 -18.5t-19.5 -51.5q0 -26 6 -57h161v-96h-146q3 -20 3 -38q0 -42 -19 -80 h236v-125z" />
<glyph unicode="&#xa5;" horiz-adv-x="621" d="M437 600h156l-160 -279h108v-96h-158v-39h158v-96h-158v-90h-145v90h-154v96h154v39h-154v96h102l-159 279h156l101 -182l26 -61l26 61z" />
<glyph unicode="&#xa6;" horiz-adv-x="243" d="M56 330v343h131v-343h-131zM56 -153v342h131v-342h-131z" />
<glyph unicode="&#xa7;" horiz-adv-x="556" d="M90 142q8 -5 23.5 -12.5t62.5 -19.5t94 -12q75 0 75 31q0 16 -20 27t-77 26q-43 11 -67.5 19.5t-58 25t-50 41t-16.5 56.5q0 48 34 75q-34 26 -34 75q0 65 57 102t169 37q67 0 121.5 -12.5t76.5 -24.5l21 -12l-58 -101q-68 38 -161 38q-59 0 -59 -27q0 -15 15.5 -24.5 t58.5 -20.5q113 -30 151 -51q67 -36 67 -94q0 -55 -34 -86q34 -29 34 -71q0 -62 -61.5 -102t-179.5 -40q-72 0 -133 15.5t-85 31.5l-25 15zM205 353q-7 -7 -7 -21q0 -38 99 -63l65 -18q8 16 8 24q0 13 -8.5 23t-29.5 18t-36 12.5t-48 13.5z" />
<glyph unicode="&#xa8;" horiz-adv-x="455" d="M68 702q0 27 20 47.5t46 20.5q27 0 47.5 -20.5t20.5 -47.5q0 -26 -20.5 -46.5t-47.5 -20.5q-26 0 -46 20.5t-20 46.5zM251 702q0 27 20 47.5t46 20.5q27 0 47 -20.5t20 -47.5q0 -26 -20 -46.5t-47 -20.5q-26 0 -46 20.5t-20 46.5z" />
<glyph unicode="&#xa9;" horiz-adv-x="669" d="M335 605q136 0 217.5 -88t81.5 -218t-81.5 -217.5t-217.5 -87.5t-218 88t-82 217q0 130 82 218t218 88zM335 563q-116 0 -185.5 -75.5t-69.5 -188.5q0 -112 69.5 -187.5t185.5 -75.5t186 75.5t70 187.5q0 113 -70 188.5t-186 75.5zM404 353q-20 18 -54 18 q-32 0 -51.5 -19.5t-19.5 -51.5t19.5 -51.5t51.5 -19.5q15 0 28.5 4.5t19.5 8.5l6 5l49 -70q-4 -4 -11.5 -10t-36 -16.5t-61.5 -10.5q-76 0 -120.5 46t-44.5 114t44.5 114.5t120.5 46.5q34 0 61 -9.5t37 -19.5l11 -9z" />
<glyph unicode="&#xaa;" horiz-adv-x="386" d="M25 370q0 51 39.5 80.5t105.5 29.5q48 0 74 -17v5q0 65 -74 65q-49 0 -85 -20l-28 74q55 27 126 27q156 0 156 -148v-192h-71l-14 34h-6q-29 -42 -103 -42q-50 0 -85 29t-35 75zM123 377q0 -19 15 -32t43 -13q25 0 43 14t20 32v8q-5 37 -62 37q-29 0 -44 -13t-15 -33z " />
<glyph unicode="&#xab;" horiz-adv-x="515" d="M27 218l130 190h119v-9l-125 -186v-9l125 -187v-9h-119l-130 189v21zM239 218l130 190h119v-9l-125 -186v-9l125 -187v-9h-119l-130 189v21z" />
<glyph unicode="&#xac;" horiz-adv-x="564" d="M38 346h472v-346h-118v230h-354v116z" />
<glyph unicode="&#xad;" horiz-adv-x="372" d="M46 287h280v-116h-280v116z" />
<glyph unicode="&#xae;" horiz-adv-x="528" d="M490 380q0 -99 -62 -166t-165 -67q-102 0 -163.5 67.5t-61.5 165.5q0 99 61 166t164 67t165 -67t62 -166zM445 380q0 82 -50.5 136t-131.5 54t-130.5 -53t-49.5 -137q0 -82 50 -136t130 -54q81 0 131.5 54t50.5 136zM272 485q40 0 64.5 -21t24.5 -55q0 -40 -31 -61v-1 l35 -52v-12h-64l-33 49h-35v-49h-61v202h100zM233 430v-45h37q27 0 27 22q0 23 -27 23h-37z" />
<glyph unicode="&#xaf;" horiz-adv-x="526" d="M121 753h295v-85h-295v85z" />
<glyph unicode="&#xb0;" horiz-adv-x="282" d="M141 673q52 0 85 -31t33 -77t-33 -77t-85 -31t-85 31t-33 77t33 77t85 31zM141 604q-18 0 -28.5 -10.5t-10.5 -28.5q0 -16 10.5 -26.5t28.5 -10.5t29 10.5t11 26.5q0 17 -10.5 28t-29.5 11z" />
<glyph unicode="&#xb1;" horiz-adv-x="517" d="M201 192v141h-152v116h152v149h118v-149h149v-116h-149v-141h-118zM468 17h-419v116h419v-116z" />
<glyph unicode="&#xb2;" horiz-adv-x="331" d="M45 412l116 103q22 19 22 39q0 14 -10 23t-26 9q-25 0 -62 -31l-52 75q5 5 14 13t40 21t65 13q62 0 96.5 -33t34.5 -80q0 -58 -38 -90l-58 -51h102v-81h-244v70z" />
<glyph unicode="&#xb3;" horiz-adv-x="315" d="M39 668h232v-61l-52 -65q65 -24 65 -89q0 -53 -35.5 -86t-102.5 -33q-36 0 -65 11t-40 21l-11 11l49 68q21 -23 63 -23q44 0 44 30t-40 30h-47v42l50 62h-110v82z" />
<glyph unicode="&#xb4;" horiz-adv-x="279" d="M132 497h-92l48 145l163 -13z" />
<glyph unicode="&#xb5;" horiz-adv-x="524" d="M329 420h144v-420h-98l-24 56h-6q-45 -66 -121 -66q-11 0 -31 2l2 -120h-145v548h144v-237q0 -32 17 -52t48 -20q32 0 51 20.5t19 48.5v240z" />
<glyph unicode="&#xb6;" horiz-adv-x="559" d="M352 122h-53q-120 0 -195.5 64.5t-75.5 179.5q0 113 75.5 174t195.5 61h198v-683h-145v204z" />
<glyph unicode="&#xb7;" horiz-adv-x="233" d="M32 359q0 35 24.5 60t59.5 25t60 -25t25 -60t-25 -59.5t-60 -24.5t-59.5 24.5t-24.5 59.5z" />
<glyph unicode="&#xb8;" horiz-adv-x="206" d="M46 -53l27 56h64l-13 -33q28 0 46 -17.5t18 -47.5q0 -35 -24 -56t-68 -21q-28 0 -51 8t-32 16l-9 9l31 49q30 -21 56 -21q31 0 31 20q0 19 -26 19q-8 0 -15 -1.5t-10 -2.5l-3 -2z" />
<glyph unicode="&#xb9;" horiz-adv-x="225" d="M19 668h155v-326h-93v244h-62v82z" />
<glyph unicode="&#xba;" horiz-adv-x="382" d="M191 613q70 0 117 -48t47 -127q0 -75 -47 -122t-117 -47q-71 0 -118 47t-47 122q0 79 47 127t118 48zM191 531q-32 0 -50.5 -25t-18.5 -66q0 -40 18.5 -64.5t50.5 -24.5t50 24t18 65t-18 66t-50 25z" />
<glyph unicode="&#xbb;" horiz-adv-x="515" d="M276 197l-130 -189h-119v9l125 187v9l-125 186v9h119l130 -190v-21zM488 197l-130 -189h-119v9l125 187v9l-125 186v9h119l130 -190v-21z" />
<glyph unicode="&#xbc;" horiz-adv-x="663" d="M29 0l479 600h112l-479 -601zM49 600h155v-326h-93v244h-62v82zM320 127l180 199h71v-183h55v-76h-55v-67h-89v67h-162v60zM429 141l24 2h29v64h-1l-36 -48l-16 -17v-1z" />
<glyph unicode="&#xbd;" horiz-adv-x="714" d="M28 0l478 600h113l-479 -600h-112zM53 600h155v-326h-93v244h-62v82zM434 0h244v81h-102l58 51q38 32 38 90q0 47 -34.5 80t-96.5 33q-34 0 -64 -11.5t-43 -23.5l-12 -12l52 -75q37 31 62 31q16 0 26 -9t10 -23q0 -20 -22 -39l-116 -103v-70z" />
<glyph unicode="&#xbe;" horiz-adv-x="700" d="M40 600h232v-61l-52 -65q65 -24 65 -89q0 -53 -35.5 -86t-102.5 -33q-36 0 -65 11t-40 21l-11 11l49 68q21 -23 63 -23q44 0 44 30t-40 30h-47v42l50 62h-110v82zM76 0l479 600h112l-477 -600h-114zM367 120l180 199h71v-183h48v-76h-48v-60h-90v60h-161v60zM476 134 l24 2h28v64h-1l-35 -48l-16 -17v-1z" />
<glyph unicode="&#xbf;" horiz-adv-x="447" d="M319 351q0 -34 -23.5 -57t-57.5 -23t-57 23t-23 57t23 57.5t57 23.5t57.5 -23.5t23.5 -57.5zM425 -129q-6 -7 -19 -17t-59 -27t-101 -17q-96 0 -156.5 46t-60.5 124q0 39 14 69.5t35 49t42 33.5t37.5 31.5t19.5 34.5l3 19h117v-30q0 -34 -15.5 -59.5t-34.5 -39 t-34.5 -34.5t-15.5 -46q0 -26 18 -40.5t50 -14.5q20 0 41 8.5t32 16.5l11 8z" />
<glyph unicode="&#xc0;" horiz-adv-x="598" d="M150 771l159 24l33 -160h-96zM607 0h-156l-37 108h-230l-37 -108h-156l229 600h158zM223 222h152l-76 222z" />
<glyph unicode="&#xc1;" horiz-adv-x="598" d="M346 635h-92l48 145l163 -13zM607 0h-156l-37 108h-230l-37 -108h-156l229 600h158zM223 222h152l-76 222z" />
<glyph unicode="&#xc2;" horiz-adv-x="598" d="M300 698l-42 -63h-95l83 142h110l82 -142h-96zM607 0h-156l-37 108h-230l-37 -108h-156l229 600h158zM223 222h152l-76 222z" />
<glyph unicode="&#xc3;" horiz-adv-x="598" d="M376 640q-33 0 -71.5 18t-51.5 18q-21 0 -28 -25l-4 -16l-101 9l6 37q8 48 35.5 75t72.5 27q33 0 71.5 -18t51.5 -18q21 0 28 25l4 16l101 -9l-6 -37q-8 -48 -35.5 -75t-72.5 -27zM607 0h-156l-37 108h-230l-37 -108h-156l229 600h158zM223 222h152l-76 222z" />
<glyph unicode="&#xc4;" horiz-adv-x="598" d="M141 702q0 27 20 47.5t46 20.5q27 0 47.5 -20.5t20.5 -47.5q0 -26 -20.5 -46.5t-47.5 -20.5q-26 0 -46 20.5t-20 46.5zM324 702q0 27 20 47.5t46 20.5q27 0 47 -20.5t20 -47.5q0 -26 -20 -46.5t-47 -20.5q-26 0 -46 20.5t-20 46.5zM607 0h-156l-37 108h-230l-37 -108 h-156l229 600h158zM223 222h152l-76 222z" />
<glyph unicode="&#xc5;" horiz-adv-x="598" d="M182 706q0 42 29.5 67t87.5 25t87.5 -25t29.5 -67q0 -41 -29.5 -66t-87.5 -25t-87.5 25t-29.5 66zM342 706q0 33 -43 33q-42 0 -42 -33q0 -32 42 -32q43 0 43 32zM607 0h-156l-37 108h-230l-37 -108h-156l229 600h158zM223 222h152l-76 222z" />
<glyph unicode="&#xc6;" horiz-adv-x="902" d="M391 600h478v-125h-311v-118h244v-114h-244v-118h311v-125h-456v115h-185l-74 -115h-172zM304 232h109v166h-2z" />
<glyph unicode="&#xc7;" horiz-adv-x="552" d="M266 -53l20 43q-119 16 -188 103t-69 207q0 133 84 223t225 90q63 0 114 -18.5t71 -36.5l20 -18l-83 -111q-4 5 -13 12.5t-40 20t-67 12.5q-71 0 -116 -48t-45 -126t45 -126t116 -48q36 0 66 11t42 23l12 11l83 -111q-2 -3 -7 -7.5t-23 -17t-38 -22t-54 -18t-71 -9.5 l-6 -16q28 0 46 -17.5t18 -47.5q0 -35 -24 -56t-68 -21q-28 0 -51 8t-32 16l-9 9l31 49q30 -21 56 -21q31 0 31 20q0 19 -26 19q-8 0 -15 -1.5t-10 -2.5l-3 -2z" />
<glyph unicode="&#xc8;" horiz-adv-x="533" d="M153 771l159 24l33 -160h-96zM451 247h-244v-122h291v-125h-436v600h436v-125h-291v-114h244v-114z" />
<glyph unicode="&#xc9;" horiz-adv-x="533" d="M336 635h-92l48 145l163 -13zM451 247h-244v-122h291v-125h-436v600h436v-125h-291v-114h244v-114z" />
<glyph unicode="&#xca;" horiz-adv-x="533" d="M291 698l-42 -63h-95l83 142h110l82 -142h-96zM451 247h-244v-122h291v-125h-436v600h436v-125h-291v-114h244v-114z" />
<glyph unicode="&#xcb;" horiz-adv-x="533" d="M136 702q0 27 20 47.5t46 20.5q27 0 47.5 -20.5t20.5 -47.5q0 -26 -20.5 -46.5t-47.5 -20.5q-26 0 -46 20.5t-20 46.5zM319 702q0 27 20 47.5t46 20.5q27 0 47 -20.5t20 -47.5q0 -26 -20 -46.5t-47 -20.5q-26 0 -46 20.5t-20 46.5zM451 247h-244v-122h291v-125h-436v600 h436v-125h-291v-114h244v-114z" />
<glyph unicode="&#xcc;" horiz-adv-x="269" d="M-16 771l159 24l33 -160h-96zM207 0h-145v600h145v-600z" />
<glyph unicode="&#xcd;" horiz-adv-x="269" d="M180 635h-92l48 145l163 -13zM207 0h-145v600h145v-600z" />
<glyph unicode="&#xce;" horiz-adv-x="269" d="M136 698l-42 -63h-95l83 142h110l82 -142h-96zM207 0h-145v600h145v-600z" />
<glyph unicode="&#xcf;" horiz-adv-x="269" d="M-23 702q0 27 20 47.5t46 20.5q27 0 47.5 -20.5t20.5 -47.5q0 -26 -20.5 -46.5t-47.5 -20.5q-26 0 -46 20.5t-20 46.5zM160 702q0 27 20 47.5t46 20.5q27 0 47 -20.5t20 -47.5q0 -26 -20 -46.5t-47 -20.5q-26 0 -46 20.5t-20 46.5zM207 0h-145v600h145v-600z" />
<glyph unicode="&#xd0;" horiz-adv-x="639" d="M15 368h49v232h231q143 0 229 -84.5t86 -215.5t-86 -215.5t-229 -84.5h-231v239h-49v129zM209 475v-107h113v-129h-113v-114h75q75 0 125.5 47.5t50.5 127.5q0 84 -50 129.5t-126 45.5h-75z" />
<glyph unicode="&#xd1;" horiz-adv-x="668" d="M410 640q-33 0 -71.5 18t-51.5 18q-21 0 -28 -25l-4 -16l-101 9l6 37q8 48 35.5 75t72.5 27q33 0 71.5 -18t51.5 -18q21 0 28 25l4 16l101 -9l-6 -37q-8 -48 -35.5 -75t-72.5 -27zM606 0h-112l-288 350v-350h-144v600h112l288 -344v344h144v-600z" />
<glyph unicode="&#xd2;" horiz-adv-x="672" d="M188 771l159 24l33 -160h-96zM335 -14q-134 0 -220.5 91.5t-86.5 222.5t86.5 222t220.5 91q135 0 222 -91t87 -222t-87 -222.5t-222 -91.5zM335 127q68 0 113.5 48t45.5 125t-45.5 125t-113.5 48q-67 0 -112 -48t-45 -125t45 -125t112 -48z" />
<glyph unicode="&#xd3;" horiz-adv-x="672" d="M377 635h-92l48 145l163 -13zM335 -14q-134 0 -220.5 91.5t-86.5 222.5t86.5 222t220.5 91q135 0 222 -91t87 -222t-87 -222.5t-222 -91.5zM335 127q68 0 113.5 48t45.5 125t-45.5 125t-113.5 48q-67 0 -112 -48t-45 -125t45 -125t112 -48z" />
<glyph unicode="&#xd4;" horiz-adv-x="672" d="M337 698l-42 -63h-95l83 142h110l82 -142h-96zM335 -14q-134 0 -220.5 91.5t-86.5 222.5t86.5 222t220.5 91q135 0 222 -91t87 -222t-87 -222.5t-222 -91.5zM335 127q68 0 113.5 48t45.5 125t-45.5 125t-113.5 48q-67 0 -112 -48t-45 -125t45 -125t112 -48z" />
<glyph unicode="&#xd5;" horiz-adv-x="672" d="M409 640q-33 0 -71.5 18t-51.5 18q-21 0 -28 -25l-4 -16l-101 9l6 37q8 48 35.5 75t72.5 27q33 0 71.5 -18t51.5 -18q21 0 28 25l4 16l101 -9l-6 -37q-8 -48 -35.5 -75t-72.5 -27zM335 -14q-134 0 -220.5 91.5t-86.5 222.5t86.5 222t220.5 91q135 0 222 -91t87 -222 t-87 -222.5t-222 -91.5zM335 127q68 0 113.5 48t45.5 125t-45.5 125t-113.5 48q-67 0 -112 -48t-45 -125t45 -125t112 -48z" />
<glyph unicode="&#xd6;" horiz-adv-x="672" d="M178 702q0 27 20 47.5t46 20.5q27 0 47.5 -20.5t20.5 -47.5q0 -26 -20.5 -46.5t-47.5 -20.5q-26 0 -46 20.5t-20 46.5zM361 702q0 27 20 47.5t46 20.5q27 0 47 -20.5t20 -47.5q0 -26 -20 -46.5t-47 -20.5q-26 0 -46 20.5t-20 46.5zM335 -14q-134 0 -220.5 91.5 t-86.5 222.5t86.5 222t220.5 91q135 0 222 -91t87 -222t-87 -222.5t-222 -91.5zM335 127q68 0 113.5 48t45.5 125t-45.5 125t-113.5 48q-67 0 -112 -48t-45 -125t45 -125t112 -48z" />
<glyph unicode="&#xd7;" horiz-adv-x="514" d="M39 166l137 137l-137 137l81 81l137 -137l137 137l81 -81l-137 -137l137 -137l-81 -81l-137 137l-137 -137z" />
<glyph unicode="&#xd8;" horiz-adv-x="692" d="M346 -14q-101 0 -178 55l-40 -41h-147l113 116q-55 82 -55 184q0 131 86.5 222t220.5 91q100 0 178 -54l39 41h147l-112 -115q57 -82 57 -185q0 -131 -87 -222.5t-222 -91.5zM189 300q0 -38 13 -72l219 226q-35 19 -75 19q-67 0 -112 -48t-45 -125zM346 127 q68 0 113.5 48t45.5 125q0 40 -14 74l-221 -228q32 -19 76 -19z" />
<glyph unicode="&#xd9;" horiz-adv-x="640" d="M172 771l159 24l33 -160h-96zM320 -14q-120 0 -193 77.5t-73 195.5v341h145v-341q0 -59 31 -95.5t90 -36.5q60 0 90.5 36.5t30.5 95.5v341h145v-341q0 -119 -72 -196t-194 -77z" />
<glyph unicode="&#xda;" horiz-adv-x="640" d="M362 635h-92l48 145l163 -13zM320 -14q-120 0 -193 77.5t-73 195.5v341h145v-341q0 -59 31 -95.5t90 -36.5q60 0 90.5 36.5t30.5 95.5v341h145v-341q0 -119 -72 -196t-194 -77z" />
<glyph unicode="&#xdb;" horiz-adv-x="640" d="M322 698l-42 -63h-95l83 142h110l82 -142h-96zM320 -14q-120 0 -193 77.5t-73 195.5v341h145v-341q0 -59 31 -95.5t90 -36.5q60 0 90.5 36.5t30.5 95.5v341h145v-341q0 -119 -72 -196t-194 -77z" />
<glyph unicode="&#xdc;" horiz-adv-x="640" d="M164 702q0 27 20 47.5t46 20.5q27 0 47.5 -20.5t20.5 -47.5q0 -26 -20.5 -46.5t-47.5 -20.5q-26 0 -46 20.5t-20 46.5zM347 702q0 27 20 47.5t46 20.5q27 0 47 -20.5t20 -47.5q0 -26 -20 -46.5t-47 -20.5q-26 0 -46 20.5t-20 46.5zM320 -14q-120 0 -193 77.5t-73 195.5 v341h145v-341q0 -59 31 -95.5t90 -36.5q60 0 90.5 36.5t30.5 95.5v341h145v-341q0 -119 -72 -196t-194 -77z" />
<glyph unicode="&#xdd;" horiz-adv-x="548" d="M319 668h-92l48 145l163 -13zM401 600h156l-210 -367v-233h-145v231l-211 369h156l101 -182l26 -61l26 61z" />
<glyph unicode="&#xde;" horiz-adv-x="591" d="M207 512h130q110 0 174 -55.5t64 -153.5q0 -103 -68.5 -159.5t-179.5 -56.5h-120v-87h-145v600h145v-88zM425 297q0 43 -28.5 66.5t-75.5 23.5h-114v-180h115q47 0 75 23t28 67z" />
<glyph unicode="&#xdf;" horiz-adv-x="499" d="M238 337q73 15 73 78q0 64 -59 64q-27 0 -43 -19t-16 -49v-411h-144v404q0 91 53.5 143.5t150.5 52.5q89 0 147 -53t58 -126q0 -88 -64 -122q76 -35 76 -132q0 -76 -49.5 -123.5t-126.5 -47.5l-57 4v91h23q38 0 58.5 19.5t20.5 53.5q0 33 -20.5 52t-57.5 19h-23v102z" />
<glyph unicode="&#xe0;" d="M106 633l159 24l33 -160h-96zM353 366l23 54h94v-420h-94l-23 54h-6q-1 -3 -4 -7t-13.5 -15t-23.5 -19.5t-35.5 -15.5t-49.5 -7q-85 0 -140 59.5t-55 159.5q0 97 55 159t139 62q43 0 74.5 -16t41.5 -32l11 -16h6zM334 211q0 47 -22 74t-60 27q-37 0 -59 -28t-22 -73 t22.5 -74t58.5 -29q38 0 60 28t22 75z" />
<glyph unicode="&#xe1;" d="M289 497h-92l48 145l163 -13zM353 366l23 54h94v-420h-94l-23 54h-6q-1 -3 -4 -7t-13.5 -15t-23.5 -19.5t-35.5 -15.5t-49.5 -7q-85 0 -140 59.5t-55 159.5q0 97 55 159t139 62q43 0 74.5 -16t41.5 -32l11 -16h6zM334 211q0 47 -22 74t-60 27q-37 0 -59 -28t-22 -73 t22.5 -74t58.5 -29q38 0 60 28t22 75z" />
<glyph unicode="&#xe2;" d="M250 560l-42 -63h-95l83 142h110l82 -142h-96zM353 366l23 54h94v-420h-94l-23 54h-6q-1 -3 -4 -7t-13.5 -15t-23.5 -19.5t-35.5 -15.5t-49.5 -7q-85 0 -140 59.5t-55 159.5q0 97 55 159t139 62q43 0 74.5 -16t41.5 -32l11 -16h6zM334 211q0 47 -22 74t-60 27 q-37 0 -59 -28t-22 -73t22.5 -74t58.5 -29q38 0 60 28t22 75z" />
<glyph unicode="&#xe3;" d="M322 503q-33 0 -71.5 18t-51.5 18q-21 0 -28 -25l-4 -16l-101 9l6 37q8 48 35.5 75t72.5 27q33 0 71.5 -18t51.5 -18q21 0 28 25l4 16l101 -9l-6 -37q-8 -48 -35.5 -75t-72.5 -27zM353 366l23 54h94v-420h-94l-23 54h-6q-1 -3 -4 -7t-13.5 -15t-23.5 -19.5t-35.5 -15.5 t-49.5 -7q-85 0 -140 59.5t-55 159.5q0 97 55 159t139 62q43 0 74.5 -16t41.5 -32l11 -16h6zM334 211q0 47 -22 74t-60 27q-37 0 -59 -28t-22 -73t22.5 -74t58.5 -29q38 0 60 28t22 75z" />
<glyph unicode="&#xe4;" d="M89 563q0 27 20 47.5t46 20.5q27 0 47.5 -20.5t20.5 -47.5q0 -26 -20.5 -46.5t-47.5 -20.5q-26 0 -46 20.5t-20 46.5zM272 563q0 27 20 47.5t46 20.5q27 0 47 -20.5t20 -47.5q0 -26 -20 -46.5t-47 -20.5q-26 0 -46 20.5t-20 46.5zM353 366l23 54h94v-420h-94l-23 54h-6 q-1 -3 -4 -7t-13.5 -15t-23.5 -19.5t-35.5 -15.5t-49.5 -7q-85 0 -140 59.5t-55 159.5q0 97 55 159t139 62q43 0 74.5 -16t41.5 -32l11 -16h6zM334 211q0 47 -22 74t-60 27q-37 0 -59 -28t-22 -73t22.5 -74t58.5 -29q38 0 60 28t22 75z" />
<glyph unicode="&#xe5;" d="M130 584q0 42 29.5 67t87.5 25t87.5 -25t29.5 -67q0 -41 -29.5 -66t-87.5 -25t-87.5 25t-29.5 66zM290 584q0 33 -43 33q-42 0 -42 -33q0 -32 42 -32q43 0 43 32zM353 366l23 54h94v-420h-94l-23 54h-6q-1 -3 -4 -7t-13.5 -15t-23.5 -19.5t-35.5 -15.5t-49.5 -7 q-85 0 -140 59.5t-55 159.5q0 97 55 159t139 62q43 0 74.5 -16t41.5 -32l11 -16h6zM334 211q0 47 -22 74t-60 27q-37 0 -59 -28t-22 -73t22.5 -74t58.5 -29q38 0 60 28t22 75z" />
<glyph unicode="&#xe6;" horiz-adv-x="726" d="M682 42q-6 -6 -18 -14.5t-54 -23t-90 -14.5q-97 0 -158 52q-60 -52 -168 -52q-85 0 -130 36t-45 91q0 136 188 136q35 0 80 -9v15q0 30 -24 45.5t-66 15.5q-24 0 -50.5 -8.5t-40.5 -17.5l-14 -8l-45 106q69 38 169 38q95 0 150 -47q58 47 137 47q93 0 146.5 -56 t53.5 -153l-1 -40h-274q14 -78 102 -78q27 0 53 8t38 16l12 8zM499 326q-56 0 -69 -67h135q-2 31 -19 49t-47 18zM215 84q36 0 54 21t18 55v11q-29 8 -67 8q-64 0 -64 -49q0 -46 59 -46z" />
<glyph unicode="&#xe7;" horiz-adv-x="406" d="M165 -53l24 51q-76 18 -120 75.5t-44 136.5q0 95 62.5 157.5t165.5 62.5q39 0 72 -9.5t47 -18.5l14 -10l-36 -103q-38 23 -84 23q-43 0 -69.5 -28t-26.5 -74t26.5 -74t69.5 -28q20 0 41 6t32 12l11 5l36 -101q-5 -4 -15 -11t-44.5 -18t-73.5 -11h-2l-8 -20q28 0 46 -17.5 t18 -47.5q0 -35 -24 -56t-68 -21q-28 0 -51 8t-32 16l-9 9l31 49q30 -21 56 -21q31 0 31 20q0 19 -26 19q-8 0 -15 -1.5t-10 -2.5l-3 -2z" />
<glyph unicode="&#xe8;" horiz-adv-x="461" d="M77 633l159 24l33 -160h-96zM418 39q-6 -6 -18 -14.5t-54 -23t-90 -14.5q-106 0 -168.5 63.5t-62.5 159.5q0 95 60 157.5t154 62.5q93 0 146.5 -56t53.5 -153l-1 -40h-274q11 -81 102 -81q27 0 53 8t38 16l12 8zM235 326q-56 0 -69 -67h135q-2 31 -19 49t-47 18z" />
<glyph unicode="&#xe9;" horiz-adv-x="461" d="M287 497h-92l48 145l163 -13zM418 39q-6 -6 -18 -14.5t-54 -23t-90 -14.5q-106 0 -168.5 63.5t-62.5 159.5q0 95 60 157.5t154 62.5q93 0 146.5 -56t53.5 -153l-1 -40h-274q11 -81 102 -81q27 0 53 8t38 16l12 8zM235 326q-56 0 -69 -67h135q-2 31 -19 49t-47 18z" />
<glyph unicode="&#xea;" horiz-adv-x="461" d="M238 560l-42 -63h-95l83 142h110l82 -142h-96zM418 39q-6 -6 -18 -14.5t-54 -23t-90 -14.5q-106 0 -168.5 63.5t-62.5 159.5q0 95 60 157.5t154 62.5q93 0 146.5 -56t53.5 -153l-1 -40h-274q11 -81 102 -81q27 0 53 8t38 16l12 8zM235 326q-56 0 -69 -67h135 q-2 31 -19 49t-47 18z" />
<glyph unicode="&#xeb;" horiz-adv-x="461" d="M80 531q0 27 20 47.5t46 20.5q27 0 47.5 -20.5t20.5 -47.5q0 -26 -20.5 -46.5t-47.5 -20.5q-26 0 -46 20.5t-20 46.5zM263 531q0 27 20 47.5t46 20.5q27 0 47 -20.5t20 -47.5q0 -26 -20 -46.5t-47 -20.5q-26 0 -46 20.5t-20 46.5zM418 39q-6 -6 -18 -14.5t-54 -23 t-90 -14.5q-106 0 -168.5 63.5t-62.5 159.5q0 95 60 157.5t154 62.5q93 0 146.5 -56t53.5 -153l-1 -40h-274q11 -81 102 -81q27 0 53 8t38 16l12 8zM235 326q-56 0 -69 -67h135q-2 31 -19 49t-47 18z" />
<glyph unicode="&#xec;" horiz-adv-x="242" d="M-29 633l159 24l33 -160h-96zM49 420h144v-420h-144v420z" />
<glyph unicode="&#xed;" horiz-adv-x="242" d="M168 497h-92l48 145l163 -13zM49 420h144v-420h-144v420z" />
<glyph unicode="&#xee;" horiz-adv-x="242" d="M124 560l-42 -63h-95l83 142h110l82 -142h-96zM49 420h144v-420h-144v420z" />
<glyph unicode="&#xef;" horiz-adv-x="242" d="M-32 563q0 27 20 47.5t46 20.5q27 0 47.5 -20.5t20.5 -47.5q0 -26 -20.5 -46.5t-47.5 -20.5q-26 0 -46 20.5t-20 46.5zM151 563q0 27 20 47.5t46 20.5q27 0 47 -20.5t20 -47.5q0 -26 -20 -46.5t-47 -20.5q-26 0 -46 20.5t-20 46.5zM49 420h144v-420h-144v420z" />
<glyph unicode="&#xf0;" horiz-adv-x="510" d="M255 -11q-102 0 -166 59t-64 160q0 97 64.5 158.5t165.5 61.5h8v4q-17 21 -32 47l-20 34l-95 -58l-45 77l96 59l-71 126v11h138l42 -71l102 62l45 -77l-102 -62l102 -174q33 -60 47 -100t15 -90v-8q0 -101 -63 -160t-167 -59zM340 210q0 46 -23 73.5t-62 27.5 q-38 0 -61.5 -28.5t-23.5 -72.5q0 -45 23.5 -74.5t61.5 -29.5q39 0 62 29t23 75z" />
<glyph unicode="&#xf1;" horiz-adv-x="517" d="M329 502q-33 0 -71.5 18t-51.5 18q-21 0 -28 -25l-4 -16l-101 9l6 37q8 48 35.5 75t72.5 27q33 0 71.5 -18t51.5 -18q21 0 28 25l4 16l101 -9l-6 -37q-8 -48 -35.5 -75t-72.5 -27zM49 420h87l23 -57h7q26 37 55.5 52.5t76.5 15.5q80 0 127.5 -49.5t47.5 -134.5v-247h-144 v236q0 29 -18.5 48.5t-49.5 19.5q-29 0 -47.5 -18t-20.5 -45v-241h-144v420z" />
<glyph unicode="&#xf2;" horiz-adv-x="496" d="M100 633l159 24l33 -160h-96zM471 208q0 -97 -64.5 -157.5t-158.5 -60.5t-158.5 60.5t-64.5 157.5q0 99 64.5 160.5t158.5 61.5t158.5 -62t64.5 -160zM248 103q37 0 59.5 29t22.5 78q0 48 -22.5 77.5t-59.5 29.5q-38 0 -60.5 -29.5t-22.5 -77.5q0 -49 22.5 -78t60.5 -29z " />
<glyph unicode="&#xf3;" horiz-adv-x="496" d="M292 497h-92l48 145l163 -13zM471 208q0 -97 -64.5 -157.5t-158.5 -60.5t-158.5 60.5t-64.5 157.5q0 99 64.5 160.5t158.5 61.5t158.5 -62t64.5 -160zM248 103q37 0 59.5 29t22.5 78q0 48 -22.5 77.5t-59.5 29.5q-38 0 -60.5 -29.5t-22.5 -77.5q0 -49 22.5 -78t60.5 -29z " />
<glyph unicode="&#xf4;" horiz-adv-x="496" d="M250 560l-42 -63h-95l83 142h110l82 -142h-96zM471 208q0 -97 -64.5 -157.5t-158.5 -60.5t-158.5 60.5t-64.5 157.5q0 99 64.5 160.5t158.5 61.5t158.5 -62t64.5 -160zM248 103q37 0 59.5 29t22.5 78q0 48 -22.5 77.5t-59.5 29.5q-38 0 -60.5 -29.5t-22.5 -77.5 q0 -49 22.5 -78t60.5 -29z" />
<glyph unicode="&#xf5;" horiz-adv-x="496" d="M319 503q-33 0 -71.5 18t-51.5 18q-21 0 -28 -25l-4 -16l-101 9l6 37q8 48 35.5 75t72.5 27q33 0 71.5 -18t51.5 -18q21 0 28 25l4 16l101 -9l-6 -37q-8 -48 -35.5 -75t-72.5 -27zM471 208q0 -97 -64.5 -157.5t-158.5 -60.5t-158.5 60.5t-64.5 157.5q0 99 64.5 160.5 t158.5 61.5t158.5 -62t64.5 -160zM248 103q37 0 59.5 29t22.5 78q0 48 -22.5 77.5t-59.5 29.5q-38 0 -60.5 -29.5t-22.5 -77.5q0 -49 22.5 -78t60.5 -29z" />
<glyph unicode="&#xf6;" horiz-adv-x="496" d="M92 564q0 27 20 47.5t46 20.5q27 0 47.5 -20.5t20.5 -47.5q0 -26 -20.5 -46.5t-47.5 -20.5q-26 0 -46 20.5t-20 46.5zM275 564q0 27 20 47.5t46 20.5q27 0 47 -20.5t20 -47.5q0 -26 -20 -46.5t-47 -20.5q-26 0 -46 20.5t-20 46.5zM471 208q0 -97 -64.5 -157.5 t-158.5 -60.5t-158.5 60.5t-64.5 157.5q0 99 64.5 160.5t158.5 61.5t158.5 -62t64.5 -160zM248 103q37 0 59.5 29t22.5 78q0 48 -22.5 77.5t-59.5 29.5q-38 0 -60.5 -29.5t-22.5 -77.5q0 -49 22.5 -78t60.5 -29z" />
<glyph unicode="&#xf7;" horiz-adv-x="483" d="M157 484q0 35 24.5 60t59.5 25t60 -25t25 -60t-25 -59.5t-60 -24.5t-59.5 24.5t-24.5 59.5zM32 354h419v-116h-419v116zM157 113q0 35 24.5 60t59.5 25t60 -25t25 -60t-25 -59.5t-60 -24.5t-59.5 24.5t-24.5 59.5z" />
<glyph unicode="&#xf8;" horiz-adv-x="496" d="M471 208q0 -97 -64.5 -157.5t-158.5 -60.5q-72 0 -127 35l-24 -25h-91l66 69q-47 56 -47 139q0 99 64.5 160.5t158.5 61.5q68 0 122 -34l24 24h92l-65 -68q50 -60 50 -144zM165 210q0 -25 4 -41l120 136q-18 12 -41 12q-38 0 -60.5 -29.5t-22.5 -77.5zM248 103 q37 0 59.5 29t22.5 78q0 24 -6 43l-121 -137q19 -13 45 -13z" />
<glyph unicode="&#xf9;" horiz-adv-x="516" d="M102 633l159 24l33 -160h-96zM323 420h144v-420h-98l-24 56h-6q-45 -66 -121 -66q-80 0 -127 49t-47 134v247h144v-237q0 -32 17 -52t48 -20q32 0 51 20.5t19 48.5v240z" />
<glyph unicode="&#xfa;" horiz-adv-x="516" d="M293 497h-92l48 145l163 -13zM323 420h144v-420h-98l-24 56h-6q-45 -66 -121 -66q-80 0 -127 49t-47 134v247h144v-237q0 -32 17 -52t48 -20q32 0 51 20.5t19 48.5v240z" />
<glyph unicode="&#xfb;" horiz-adv-x="516" d="M248 560l-42 -63h-95l83 142h110l82 -142h-96zM323 420h144v-420h-98l-24 56h-6q-45 -66 -121 -66q-80 0 -127 49t-47 134v247h144v-237q0 -32 17 -52t48 -20q32 0 51 20.5t19 48.5v240z" />
<glyph unicode="&#xfc;" horiz-adv-x="516" d="M91 565q0 27 20 47.5t46 20.5q27 0 47.5 -20.5t20.5 -47.5q0 -26 -20.5 -46.5t-47.5 -20.5q-26 0 -46 20.5t-20 46.5zM274 565q0 27 20 47.5t46 20.5q27 0 47 -20.5t20 -47.5q0 -26 -20 -46.5t-47 -20.5q-26 0 -46 20.5t-20 46.5zM323 420h144v-420h-98l-24 56h-6 q-45 -66 -121 -66q-80 0 -127 49t-47 134v247h144v-237q0 -32 17 -52t48 -20q32 0 51 20.5t19 48.5v240z" />
<glyph unicode="&#xfd;" horiz-adv-x="515" d="M304 497h-92l48 145l163 -13zM466 420v-392q0 -93 -57 -150.5t-165 -57.5q-111 0 -170 65l67 86q37 -41 99 -41q88 0 88 94v12q-37 -46 -111 -46q-80 0 -127 49t-47 134v247h144v-237q0 -32 17 -52t48 -20q33 0 53.5 18t22.5 49v242h138z" />
<glyph unicode="&#xfe;" horiz-adv-x="519" d="M193 47v-203h-144v756h144v-222h5q3 6 10 14.5t34 23t61 14.5q85 0 137.5 -59.5t52.5 -159.5q0 -98 -54 -159.5t-136 -61.5q-23 0 -42 6t-30 14t-18.5 16.5t-10.5 14.5l-3 6h-6zM186 209q0 -47 22 -74t59 -27t59 28t22 73t-22.5 74t-58.5 29q-37 0 -59 -28t-22 -75z" />
<glyph unicode="&#xff;" horiz-adv-x="515" d="M100 564q0 27 20 47.5t46 20.5q27 0 47.5 -20.5t20.5 -47.5q0 -26 -20.5 -46.5t-47.5 -20.5q-26 0 -46 20.5t-20 46.5zM283 564q0 27 20 47.5t46 20.5q27 0 47 -20.5t20 -47.5q0 -26 -20 -46.5t-47 -20.5q-26 0 -46 20.5t-20 46.5zM466 420v-392q0 -93 -57 -150.5 t-165 -57.5q-111 0 -170 65l67 86q37 -41 99 -41q88 0 88 94v12q-37 -46 -111 -46q-80 0 -127 49t-47 134v247h144v-237q0 -32 17 -52t48 -20q33 0 53.5 18t22.5 49v242h138z" />
<glyph unicode="&#x152;" horiz-adv-x="1013" d="M932 247h-244v-122h291v-125h-436v64q-84 -78 -208 -78q-134 0 -220.5 91.5t-86.5 222.5t86.5 222t220.5 91q122 0 208 -78v65h436v-125h-291v-114h244v-114zM335 127q68 0 113.5 48t45.5 125t-45.5 125t-113.5 48q-67 0 -112 -48t-45 -125t45 -125t112 -48z" />
<glyph unicode="&#x153;" horiz-adv-x="817" d="M774 39q-6 -6 -18 -14.5t-54 -23t-90 -14.5q-124 0 -187 84q-64 -81 -177 -81q-94 0 -158.5 60.5t-64.5 157.5q0 99 64.5 160.5t158.5 61.5q111 0 176 -82q62 82 171 82q93 0 146.5 -56t53.5 -153l-1 -40h-274q11 -81 102 -81q27 0 53 8t38 16l12 8zM591 326 q-56 0 -69 -67h135q-2 31 -19 49t-47 18zM248 103q37 0 59.5 29t22.5 78q0 48 -22.5 77.5t-59.5 29.5q-38 0 -60.5 -29.5t-22.5 -77.5q0 -49 22.5 -78t60.5 -29z" />
<glyph unicode="&#x178;" horiz-adv-x="548" d="M119 702q0 27 20 47.5t46 20.5q27 0 47.5 -20.5t20.5 -47.5q0 -26 -20.5 -46.5t-47.5 -20.5q-26 0 -46 20.5t-20 46.5zM302 702q0 27 20 47.5t46 20.5q27 0 47 -20.5t20 -47.5q0 -26 -20 -46.5t-47 -20.5q-26 0 -46 20.5t-20 46.5zM401 600h156l-210 -367v-233h-145v231 l-211 369h156l101 -182l26 -61l26 61z" />
<glyph unicode="&#x2c6;" horiz-adv-x="371" d="M192 698l-42 -63h-95l83 142h110l82 -142h-96z" />
<glyph unicode="&#x2dc;" horiz-adv-x="485" d="M312 640q-33 0 -71.5 18t-51.5 18q-21 0 -28 -25l-4 -16l-101 9l6 37q8 48 35.5 75t72.5 27q33 0 71.5 -18t51.5 -18q21 0 28 25l4 16l101 -9l-6 -37q-8 -48 -35.5 -75t-72.5 -27z" />
<glyph unicode="&#x2000;" horiz-adv-x="406" />
<glyph unicode="&#x2001;" horiz-adv-x="813" />
<glyph unicode="&#x2002;" horiz-adv-x="406" />
<glyph unicode="&#x2003;" horiz-adv-x="813" />
<glyph unicode="&#x2004;" horiz-adv-x="271" />
<glyph unicode="&#x2005;" horiz-adv-x="203" />
<glyph unicode="&#x2006;" horiz-adv-x="135" />
<glyph unicode="&#x2007;" horiz-adv-x="135" />
<glyph unicode="&#x2008;" horiz-adv-x="101" />
<glyph unicode="&#x2009;" horiz-adv-x="162" />
<glyph unicode="&#x200a;" horiz-adv-x="45" />
<glyph unicode="&#x2010;" horiz-adv-x="372" d="M46 287h280v-116h-280v116z" />
<glyph unicode="&#x2011;" horiz-adv-x="372" d="M46 287h280v-116h-280v116z" />
<glyph unicode="&#x2012;" horiz-adv-x="372" d="M46 287h280v-116h-280v116z" />
<glyph unicode="&#x2013;" horiz-adv-x="447" d="M56 345h335v-116h-335v116z" />
<glyph unicode="&#x2014;" horiz-adv-x="700" d="M56 345h588v-116h-588v116z" />
<glyph unicode="&#x2018;" horiz-adv-x="229" d="M195 526q-53 -12 -64 -42q27 -7 43.5 -28t16.5 -49q0 -34 -23 -57.5t-57 -23.5t-57.5 23.5t-23.5 57.5v5q0 67 37 120.5t107 67.5z" />
<glyph unicode="&#x2019;" horiz-adv-x="229" d="M39 400q53 10 63 41q-26 7 -42.5 28.5t-16.5 49.5q0 34 23 57.5t57 23.5t57.5 -23.5t23.5 -57.5v-5q0 -67 -37 -120.5t-107 -67.5z" />
<glyph unicode="&#x201a;" horiz-adv-x="230" d="M29 -49q53 12 63 42q-26 6 -42.5 27.5t-16.5 49.5q0 34 23 57.5t57 23.5t57.5 -23.5t23.5 -57.5v-5q0 -67 -37 -120.5t-107 -67.5z" />
<glyph unicode="&#x201c;" horiz-adv-x="428" d="M30 412q0 67 37 120.5t107 67.5l21 -74q-53 -12 -64 -42q27 -7 43.5 -28t16.5 -49q0 -34 -23 -57.5t-57 -23.5t-57.5 23.5t-23.5 57.5v5zM394 526q-53 -12 -64 -42q27 -7 43.5 -28t16.5 -49q0 -34 -23 -57.5t-57 -23.5t-57.5 23.5t-23.5 57.5v5q0 67 37 120.5t107 67.5z " />
<glyph unicode="&#x201d;" horiz-adv-x="414" d="M204 514q0 -67 -37 -120.5t-107 -67.5l-21 74q53 10 63 41q-26 7 -42.5 28.5t-16.5 49.5q0 34 23 57.5t57 23.5t57.5 -23.5t23.5 -57.5v-5zM224 400q53 10 63 41q-26 7 -42.5 28.5t-16.5 49.5q0 34 23 57.5t57 23.5t57.5 -23.5t23.5 -57.5v-5q0 -67 -37 -120.5 t-107 -67.5z" />
<glyph unicode="&#x201e;" horiz-adv-x="393" d="M173 65q0 -67 -37 -120.5t-107 -67.5l-21 74q53 10 63 41q-26 7 -42.5 28.5t-16.5 49.5q0 34 23 57.5t57 23.5t57.5 -23.5t23.5 -57.5v-5zM193 -49q53 10 63 41q-26 7 -42.5 28.5t-16.5 49.5q0 34 23 57.5t57 23.5t57.5 -23.5t23.5 -57.5v-5q0 -67 -37 -120.5t-107 -67.5 z" />
<glyph unicode="&#x2022;" horiz-adv-x="331" d="M165 327q43 0 73.5 -30.5t30.5 -73.5t-30.5 -73t-73.5 -30t-73 30t-30 73t30 73.5t73 30.5z" />
<glyph unicode="&#x2026;" horiz-adv-x="771" d="M35 76q0 35 24.5 60t59.5 25t60 -25t25 -60t-25 -59.5t-60 -24.5t-59.5 24.5t-24.5 59.5zM301 76q0 35 24.5 60t59.5 25t60 -25t25 -60t-25 -59.5t-60 -24.5t-59.5 24.5t-24.5 59.5zM567 76q0 35 24.5 60t59.5 25t60 -25t25 -60t-25 -59.5t-60 -24.5t-59.5 24.5 t-24.5 59.5z" />
<glyph unicode="&#x202f;" horiz-adv-x="162" />
<glyph unicode="&#x2039;" horiz-adv-x="303" d="M27 218l130 190h119v-9l-125 -186v-9l125 -187v-9h-119l-130 189v21z" />
<glyph unicode="&#x203a;" horiz-adv-x="303" d="M276 197l-130 -189h-119v9l125 187v9l-125 186v9h119l130 -190v-21z" />
<glyph unicode="&#x205f;" horiz-adv-x="203" />
<glyph unicode="&#x20ac;" horiz-adv-x="600" d="M410 186h-135q35 -57 112 -57q27 0 52 11t36 22l11 11l83 -111q-2 -3 -7 -8t-22 -17.5t-36.5 -22t-51.5 -17.5t-67 -8q-106 0 -174.5 53.5t-95.5 143.5h-82v96h66v39h-66v96h83q27 89 95.5 142.5t173.5 53.5q56 0 102 -18.5t64 -36.5l18 -18l-83 -111q-4 5 -12 12.5 t-34 19.5t-53 12q-75 0 -110 -56h133v-96h-161v-39h161v-96z" />
<glyph unicode="&#x2122;" horiz-adv-x="738" d="M296 521h-87v-240h-90v240h-87v79h264v-79zM345 281v319h60l106 -137l107 137h60v-319h-90v145l-57 -74h-39l-57 74v-145h-90z" />
<glyph unicode="&#x25fc;" horiz-adv-x="420" d="M0 420h420v-420h-420v420z" />
</font>
</defs>
</svg>
